<svg width="85" height="85" viewBox="0 0 85 85" fill="none" xmlns="http://www.w3.org/2000/svg">
<circle cx="42.5" cy="42.5" r="42.5" fill="#E8F3F1"/>
<g clip-path="url(#clip0_1_9)">
<path d="M43.12 47.66C42.44 48.21 42 49.05 42 50V61H56C58.2 61 60 59.2 60 57V45.05C58.11 44.38 56.09 44 54 44C49.95 44 46.13 45.4 43.12 47.66Z" fill="#364B44"/>
<path d="M54 41C59.5228 41 64 36.5228 64 31C64 25.4772 59.5228 21 54 21C48.4772 21 44 25.4772 44 31C44 36.5228 48.4772 41 54 41Z" fill="#00FFD0"/>
<path d="M41 31C41 28.83 41.54 26.8 42.47 25H28C25.8 25 24 26.8 24 29V57C24 58.1 24.45 59.1 25.18 59.83L44.81 40.2C42.46 37.84 41 34.59 41 31Z" fill="#009BFB"/>
</g>
<defs>
<clipPath id="clip0_1_9">
<rect width="48" height="48" fill="white" transform="translate(18 19)"/>
</clipPath>
</defs>
</svg>
